<svg xmlns="http://www.w3.org/2000/svg" height="406" width="406" version="1.1" xmlns:xlink="http://www.w3.org/1999/xlink" xmlns:svgjs="http://svgjs.com/svgjs"><rect fill="#f3ebe9" width="406" height="406"></rect><g><path d="M1068.93 373.94C1147.61 465.91 1198.71 585.99 1176.23 691.76 1153.74 797.01 1057.68 887.96 943.74 943.14 829.8 998.84 698.48 1018.77 604.98 970.23 511.99 921.17 457.31 802.63 429.72 678.98 402.13 555.33 401.11 426.06 463.44 337.66 526.29 249.27 652.5 202.26 768.48 209.93 884.47 218.1 990.24 281.97 1068.93 373.94Z" fill="#efdcd7" opacity="1" stroke-width="4" stroke="none"></path></g><g><path d="M321.2 508L401.63 436.76 302.58 468.65 285.12 378.46 260.21 471.48 176.09 408.76 232.71 496.47 162.62 517.3 238.93 531.5 201.87 619.33 271.24 550.76 313.19 623.12 303.12 540.61 394.02 563.95 321.2 508Z" fill="#ffc930" opacity="1" stroke-width="4" stroke="none"></path></g><g><path d="M1208.59 303.71L1190.05 416.44 1263.16 335.02 1308.41 414.91 1307 317.64 1432.26 346.65 1326.94 261.27 1395.96 163.11 1285.91 221.91 1261.89 123.49 1236.83 225.49 1151.58 159.66 1199.26 252.07 1078.47 284.15 1208.59 303.71Z" fill="#3c2c5b" opacity="1" stroke-width="4" stroke="none"></path></g><g><path d="M1213.53 868.41L1176.44 920.68 1233.38 890.13 1260.51 952.67 1266.36 887.02 1321 911.29 1280.05 862.75 1338.8 822.79 1271.34 833.5 1272.46 757.95 1240.85 828.52 1193.93 787.45 1215.33 843.45 1148.93 855.47 1213.53 868.41Z" fill="#ffa0dc" opacity="1" stroke-width="4" stroke="none"></path></g><g><path d="M353.56 878.94L328.69 916.07 365.01 896.96 372.04 937.71 383.44 895.8 415.33 922.23 399.15 882.91 430.81 877.78 396.04 866.85 409.51 830.17 380.27 855.22 368.35 820.91 362.77 860.63 323.1 850.15 353.56 878.94Z" fill="#fffefc" opacity="1" stroke-width="4" stroke="none"></path></g><g><path d="M585.92 166.06H557.01C487.62 166.06 431.4 222.29 431.4 291.67 431.4 361.06 487.62 417.28 557.01 417.28H586.92L585.92 166.06Z" fill="#ffc930" opacity="1" stroke-width="4" stroke="none"></path><path d="M586.92 417.28C656.29 417.28 712.53 361.05 712.53 291.67 712.53 222.3 656.29 166.06 586.92 166.06 517.54 166.06 461.3 222.3 461.3 291.67 461.3 361.05 517.54 417.28 586.92 417.28Z" fill="#ffc930" opacity="1" stroke-width="4" stroke="none"></path><path d="M582.53 351.19H446.35C468.28 391.86 510.75 417.28 557.01 417.28H586.92L582.53 351.19Z" fill="#000000" opacity="0.3" stroke-width="4" stroke="none"></path><path d="M615.83 166.06H586.92C517.53 166.06 461.3 222.29 461.3 291.67 461.3 361.06 517.53 417.28 586.92 417.28H616.82L615.83 166.06Z" fill="#ffa0dc" opacity="1" stroke-width="4" stroke="none"></path><path d="M610.44 311.61H462.9C472.67 372.52 525.21 417.28 586.92 417.28H616.82L610.44 311.61Z" fill="#979797" opacity="0.3" stroke-width="4" stroke="none"></path><path d="M616.82 417.28C686.2 417.28 742.43 361.05 742.43 291.67 742.43 222.3 686.2 166.06 616.82 166.06 547.45 166.06 491.21 222.3 491.21 291.67 491.21 361.05 547.45 417.28 616.82 417.28Z" fill="#ffa0dc" opacity="1" stroke-width="4" stroke="none"></path><path d="M616.82 166.06C547.44 166.06 491.21 222.29 491.21 291.67 491.21 361.06 547.44 417.28 616.82 417.28" stroke="#979797" stroke-width="4" stroke-linecap="round" stroke-linejoin="round" opacity="1" fill="none"></path><path d="M616.82 355.48C652.06 355.48 680.63 326.91 680.63 291.67 680.63 256.43 652.06 227.87 616.82 227.87 581.58 227.87 553.02 256.43 553.02 291.67 553.02 326.91 581.58 355.48 616.82 355.48Z" fill="#231f20" opacity="1" stroke-width="4" stroke="none"></path><path d="M867.85 605.5C843.52 605.7 820.19 595.23 804.14 576.99 794.67 566.02 794.07 555.66 795.17 548.78 795.87 544.39 797.56 540.2 800.06 536.42L814.11 456.06H814.21C814.51 455.97 844.62 446.3 872.23 446.3 891.57 446.3 905.13 450.88 912.61 460.05 919.09 467.93 920.88 479.29 917.89 493.75 920.08 494.84 945.71 509.2 937.13 552.97 934.24 568.82 925.17 582.87 912.01 592.14 899.75 600.72 884.1 605.5 867.85 605.5Z" fill="#231f20" opacity="1" stroke-width="4" stroke="none"></path><path d="M691.29 413C677.34 377.81 654.41 317 653.51 314.7 637.66 303.74 637.56 275.03 637.56 274.73V274.53L666.97 267.15C670.66 266.25 673.45 263.16 673.85 259.37 674.25 256.18 675.04 252.79 676.64 251.1 677.24 250.5 678.03 250.1 678.83 250.1 679.43 250.1 680.13 250.3 680.63 250.6 683.82 252.2 693.68 274.93 706.15 303.84 717.81 330.75 730.97 361.06 742.53 383.19L742.33 383.69 691.99 413.5 691.29 413Z" fill="#c65a42" opacity="1" stroke-width="4" stroke="none"></path><path d="M747.52 572.01C744.43 559.94 741.64 549.97 739.24 542 728.28 505.41 712.63 466.43 697.57 428.75L693.49 418.38C692.79 416.69 691.29 413 691.29 413L742.53 383.19 742.63 383.39C761.77 420.18 774.44 451.88 774.53 452.18L817.5 546.09 750.41 576.09 747.52 572.01Z" fill="#3c2c5b" opacity="1" stroke-width="4" stroke="none"></path><path d="M761.18 630.23V630.03C761.08 629.73 754.7 600.32 747.52 572.11V572.01L747.62 571.91C747.62 571.91 751.11 568.72 755.89 558.65 760.38 549.38 766.96 532.23 773.14 502.92V502.82L827.27 488.76V488.96C827.37 489.36 833.75 532.93 846.21 554.66 854.09 568.42 869.94 582.97 870.14 583.17L870.24 583.27V583.37C864.56 609.19 860.07 630.03 860.07 630.03V630.23H761.18Z" fill="#ffa0dc" opacity="1" stroke-width="4" stroke="none"></path><path d="M792.08 512.39C790.78 512.39 789.59 512.29 788.29 512.19 778.92 511.19 773.14 502.92 773.14 502.82L774.24 482.18C761.38 483.38 752.4 480.19 747.62 472.41 742.23 463.84 744.63 454.07 746.82 444.6 747.02 443.7 747.22 442.91 747.42 442.01 748.22 437.82 748.71 433.63 749.01 429.35 749.51 424.36 750.01 418.78 751.01 413.6 752.3 406.62 754.2 401.53 756.79 398.04 766.16 385.48 779.92 387.58 800.45 388.57 810.82 389.07 820.49 393.56 827.57 401.04 834.35 408.21 837.94 417.68 837.74 427.55 837.64 430.94 839.93 430.05 839.33 441.71L836.34 482.98C832.65 488.76 828.27 494.05 823.18 498.63 816.21 505.21 805.34 512.39 792.08 512.39Z" fill="#c65a42" opacity="1" stroke-width="4" stroke="none"></path><path d="M829.17 484.48C823.28 484.48 810.92 480.59 807.83 471.22L807.73 470.92 808.03 470.72C808.23 470.62 829.27 458.06 825.78 444.2 824.28 438.42 819.99 435.43 812.92 435.43 807.93 435.63 803.05 436.63 798.46 438.52L798.16 438.62 797.96 438.32C797.96 438.22 795.37 433.04 798.06 425.16 798.26 424.66 797.76 424.06 797.16 424.26 793.97 425.16 790.78 425.76 787.59 425.86 783.31 425.86 780.12 424.56 778.22 421.87 775.43 418.18 775.83 412.9 776.43 409.71 776.53 409.11 775.83 408.71 775.33 409.01 767.36 413.9 760.98 414.99 756.89 414.99 754.9 415.09 753.1 415.29 751.21 414.59L750.81 414.49 751.01 413.6C752.3 406.62 754 401.63 756.69 398.04 765.46 386.38 780.42 379.9 798.96 379.9 800.35 379.9 801.75 379.9 803.25 380 825.38 381.2 842.62 397.94 842.62 418.18 842.62 427.75 841.13 454.47 840.03 473.91L839.53 482.18 839.33 482.28C836.14 483.78 832.65 484.48 829.17 484.48Z" fill="#231f20" opacity="1" stroke-width="4" stroke="none"></path><path d="M774.24 482.18C779.32 481.49 784.3 479.39 789.09 477.5" stroke="#000000" stroke-width="4" stroke-linecap="round" stroke-linejoin="round" opacity="1" fill="none"></path><path d="M766.86 439.02L766.26 441.11C765.86 442.31 766.26 443.6 767.16 444.5L767.36 444.7" stroke="#000000" stroke-width="4" stroke-linecap="round" stroke-linejoin="round" opacity="1" fill="none"></path><path d="M764.76 454.17C766.16 455.17 770.65 455.27 773.24 452.08" stroke="#000000" stroke-width="4" stroke-linecap="round" stroke-linejoin="round" opacity="1" fill="none"></path><path d="M778.92 439.42C780.3 439.42 781.41 438.3 781.41 436.92 781.41 435.55 780.3 434.43 778.92 434.43 777.55 434.43 776.43 435.55 776.43 436.92 776.43 438.3 777.55 439.42 778.92 439.42Z" fill="#231f20" opacity="1" stroke-width="4" stroke="none"></path><path d="M757.59 436.23C758.96 436.23 760.08 435.11 760.08 433.73 760.08 432.36 758.96 431.24 757.59 431.24 756.21 431.24 755.09 432.36 755.09 433.73 755.09 435.11 756.21 436.23 757.59 436.23Z" fill="#231f20" opacity="1" stroke-width="4" stroke="none"></path><path d="M657.7 1067.77C657.7 1067.67 657 1062.19 661.98 1054.11L665.27 1052.02 779.72 1053.02 780.82 1054.01C780.22 1059 779.12 1067.87 779.12 1067.87L657.7 1067.77Z" fill="#231f20" opacity="1" stroke-width="4" stroke="none"></path><path d="M831.16 1067.97V1067.77C831.16 1067.67 831.26 1060.99 836.24 1052.92L837.24 1052.52 952.98 1053.12 953.28 1053.52C953.08 1058.5 952.98 1063.09 952.68 1067.77V1067.97H831.16Z" fill="#231f20" opacity="1" stroke-width="4" stroke="none"></path><path d="M664.87 1049.73C667.47 1046.04 672.05 1041.35 679.43 1036.57 700.56 1022.91 701.86 1005.56 701.36 987.52V987.32H728.58C735.06 987.32 740.24 992.51 740.24 998.98 740.24 999.48 740.24 1000.08 740.14 1000.58L737.65 1018.23 782.11 1017.93 783.81 1020.22C783.11 1031.29 782.31 1041.25 780.92 1053.32L780.82 1054.01 662.58 1055.01C662.08 1055.01 661.78 1054.51 661.98 1054.11L664.87 1049.73Z" fill="#ffc930" opacity="1" stroke-width="4" stroke="none"></path><path d="M836.54 1053.52C836.24 1053.52 836.04 1053.12 836.24 1052.92L838.54 1049.53C840.53 1047.24 845.52 1041.35 852.89 1036.57 874.43 1022.51 872.33 1007.36 867.25 988.92L868.74 982.93 903.44 984.03C909.92 984.03 914.2 992.11 914.2 998.59 914.2 999.08 915.1 999.88 915 1000.38L914.6 1013.94 951.69 1002.77 953.48 1018.82C953.88 1030.19 953.68 1041.25 953.28 1053.12V1053.52H836.54Z" fill="#ffc930" opacity="1" stroke-width="4" stroke="none"></path><path d="M737.25 1018.62L739.74 1000.58C740.64 994.4 736.35 988.72 730.17 987.82 729.67 987.72 729.18 987.72 728.58 987.72L701.36 987.32C701.36 987.32 701.36 986.32 701.36 985.53 701.06 976.36 700.46 964.89 699.77 951.53 698.07 918.83 695.98 878.06 697.37 848.85 697.47 845.66 697.67 842.47 697.97 839.08L699.47 836.89 779.62 835.89 781.51 841.67C779.72 847.15 779.32 850.25 778.52 856.03 775.73 878.66 777.92 896.9 780.42 918.14 783.41 943.46 786.8 972.27 783.91 1018.52L783.81 1020.32 737.25 1018.62Z" fill="#c65a42" opacity="1" stroke-width="4" stroke="none"></path><path d="M908.72 1018.62L911.21 1000.58C912.11 994.4 907.82 988.72 901.64 987.82 901.14 987.72 900.64 987.72 900.05 987.72L867.25 988.92 866.85 987.62C864.26 978.45 857.48 959.31 849.5 937.08 842.13 916.54 833.75 893.31 827.97 875.37 824.88 865.7 821.39 853.24 817.9 838.88L818.6 838.48 904.73 837.78 906.83 839.08C907.62 843.77 908.62 848.45 910.12 853.04 911.61 857.72 914.3 863.3 917.69 870.48 930.15 896.8 950.99 940.77 953.48 1018.62V1018.82L908.72 1018.62Z" fill="#c65a42" opacity="1" stroke-width="4" stroke="none"></path><path d="M805.34 781.16C796.07 802.49 787.3 822.73 782.31 838.98L781.51 841.67 697.97 839.08V838.88C705.75 733.81 760.68 630.82 761.18 629.83L761.28 629.73H859.97L860.07 629.83C860.37 630.13 887.39 660.83 895.76 722.64 899.45 750.25 901.04 773.48 902.44 794.02 903.64 811.56 904.63 826.72 906.83 838.88V839.08H818.2C818.1 839.08 817.9 838.98 817.9 838.88 817.2 835.69 809.53 802.19 805.34 781.16Z" fill="#ffa0dc" opacity="1" stroke-width="4" stroke="none"></path><path d="M766.46 839.18V838.98C769.15 798.31 774.93 757.83 783.51 717.95 784.11 715.36 786.7 713.67 789.29 714.27 791.18 714.66 791.68 716.36 792.08 718.25L805.34 781.16C795.97 802.79 787.99 820.14 782.51 838.38L781.51 841.67 766.46 841.27V839.18Z" fill="#979797" opacity="0.3" stroke-width="4" stroke="none"></path><path d="M792.08 718.25C796.17 741.88 800.06 755.04 805.34 781.16" stroke="#979797" stroke-width="4" stroke-linecap="round" stroke-linejoin="round" opacity="1" fill="none"></path><path d="M761.38 630.03H859.87" stroke="#979797" stroke-width="4" stroke-linecap="round" stroke-linejoin="round" opacity="1" fill="none"></path><path d="M697.37 1016.63L713.52 1021.42" stroke="#000000" stroke-width="4" stroke-linecap="round" stroke-linejoin="round" opacity="1" fill="none"></path><path d="M689.8 1028.39L704.55 1036.37" stroke="#000000" stroke-width="4" stroke-linecap="round" stroke-linejoin="round" opacity="1" fill="none"></path><path d="M869.34 1016.53L885.99 1021.42" stroke="#000000" stroke-width="4" stroke-linecap="round" stroke-linejoin="round" opacity="1" fill="none"></path><path d="M862.86 1028.09L877.02 1035.37" stroke="#000000" stroke-width="4" stroke-linecap="round" stroke-linejoin="round" opacity="1" fill="none"></path><path d="M852.09 390.27V390.07C863.46 350.79 873.03 318.79 880.51 294.96 888.68 268.74 895.96 248.81 897.75 247.61 898.35 247.21 899.05 246.91 899.85 246.91 905.13 246.91 907.72 260.97 908.02 262.56L941.92 271.54V271.64C942.02 271.84 947.1 291.97 932.65 304.73 932.15 307.33 918.39 378.8 909.02 414.29L908.92 414.49 852.09 390.27Z" fill="#c65a42" opacity="1" stroke-width="4" stroke="none"></path><path d="M869.74 584.17C855.98 577.59 845.02 566.52 837.94 552.97 823.08 524.35 824.98 497.34 824.98 497.04 825.08 496.54 836.14 446.49 852.19 390.07L852.29 389.87 909.22 414.19V414.39C904.63 431.64 895.16 473.51 891.07 491.36 890.18 495.54 889.48 498.33 889.28 499.13 885.99 512.99 879.21 543.69 873.23 570.81L870.04 584.37 869.74 584.17Z" fill="#3c2c5b" opacity="1" stroke-width="4" stroke="none"></path><path d="M825.18 497.04C825.18 497.04 823.18 523.95 838.14 552.87 845.12 566.32 856.28 577.19 870.04 583.77" stroke="#979797" stroke-width="4" stroke-linecap="round" stroke-linejoin="round" opacity="1" fill="none"></path><path d="M674.64 286.69C671.65 292.67 670.66 302.64 670.66 302.64" stroke="#000000" stroke-width="4" stroke-linecap="round" stroke-linejoin="round" opacity="1" fill="none"></path><path d="M618.82 301.64C619.41 301.64 620.01 301.54 620.61 301.44 621.31 301.34 689.3 289.18 787.79 289.18 849.5 289.38 911.11 293.47 972.32 301.54 977.81 302.34 982.79 298.55 983.59 293.07 984.39 287.59 980.6 282.6 975.21 281.8 913.11 273.63 850.5 269.44 787.89 269.24 687.5 269.24 619.91 281.31 617.12 281.9 611.74 282.9 608.15 288.08 609.15 293.47 609.84 298.15 614.03 301.64 618.82 301.64Z" fill="#ffffff" opacity="1" stroke-width="4" stroke="none"></path><path d="M673.85 271.64C674.54 274.13 674.84 276.52 675.04 278.81 675.34 282.8 674.54 285.69 672.85 287.59 671.35 289.08 669.36 289.88 667.27 289.68 666.07 289.68 664.97 289.48 663.88 289.18 661.29 293.87 657.9 294.86 655.5 294.86 654.21 294.86 653.01 294.56 651.81 294.17 650.32 294.76 648.72 295.16 647.03 295.26 644.54 295.16 642.14 293.97 640.65 291.97 639.75 292.17 638.85 292.27 637.96 292.37 636.26 292.47 634.67 291.77 633.47 290.58 631.28 288.18 631.28 284 631.58 280.81 632.47 272.33 637.66 271.64 639.25 271.64 639.45 271.64 639.55 271.64 639.65 271.64 641.05 268.84 643.94 267.15 647.13 267.35 648.03 267.35 648.82 267.45 649.72 267.65 651.71 264.96 654.01 263.56 656.7 263.56 658.1 263.56 659.49 263.96 660.69 264.66 661.29 263.96 668.36 258.08 672.45 266.25L673.85 271.64Z" fill="#c65a42" opacity="1" stroke-width="4" stroke="none"></path><path d="M773.34 503.02C761.38 559.84 747.72 572.11 747.72 572.11" stroke="#979797" stroke-width="4" stroke-linecap="round" stroke-linejoin="round" opacity="1" fill="none"></path><path d="M639.75 271.74C637.76 277.72 638.75 287.69 640.75 291.67" stroke="#000000" stroke-width="4" stroke-linecap="round" stroke-linejoin="round" opacity="1" fill="none"></path><path d="M649.72 267.75C648.52 276.42 649.22 285.29 651.71 293.67" stroke="#000000" stroke-width="4" stroke-linecap="round" stroke-linejoin="round" opacity="1" fill="none"></path><path d="M660.69 264.76C659.69 268.74 659.69 283.7 663.68 288.68" stroke="#000000" stroke-width="4" stroke-linecap="round" stroke-linejoin="round" opacity="1" fill="none"></path><path d="M950.79 166.06H921.88C852.49 166.06 796.27 222.29 796.27 291.67 796.27 361.06 852.49 417.28 921.88 417.28H951.79L950.79 166.06Z" fill="#ffc930" opacity="1" stroke-width="4" stroke="none"></path><path d="M951.79 417.28C1021.16 417.28 1077.4 361.05 1077.4 291.67 1077.4 222.3 1021.16 166.06 951.79 166.06 882.41 166.06 826.17 222.3 826.17 291.67 826.17 361.05 882.41 417.28 951.79 417.28Z" fill="#ffc930" opacity="1" stroke-width="4" stroke="none"></path><path d="M947.4 351.19H811.22C833.15 391.86 875.62 417.28 921.88 417.28H951.79L947.4 351.19Z" fill="#000000" opacity="0.3" stroke-width="4" stroke="none"></path><path d="M980.7 166.06H951.79C882.4 166.06 826.17 222.29 826.17 291.67 826.17 361.06 882.4 417.28 951.79 417.28H981.69L980.7 166.06Z" fill="#ffa0dc" opacity="1" stroke-width="4" stroke="none"></path><path d="M975.31 311.61H827.77C837.54 372.52 890.08 417.28 951.79 417.28H981.69L975.31 311.61Z" fill="#979797" opacity="0.3" stroke-width="4" stroke="none"></path><path d="M981.69 417.28C1051.07 417.28 1107.31 361.05 1107.31 291.67 1107.31 222.3 1051.07 166.06 981.69 166.06 912.32 166.06 856.08 222.3 856.08 291.67 856.08 361.05 912.32 417.28 981.69 417.28Z" fill="#ffa0dc" opacity="1" stroke-width="4" stroke="none"></path><path d="M981.69 166.06C912.31 166.06 856.08 222.29 856.08 291.67 856.08 361.06 912.31 417.28 981.69 417.28" stroke="#979797" stroke-width="4" stroke-linecap="round" stroke-linejoin="round" opacity="1" fill="none"></path><path d="M981.69 355.48C1016.93 355.48 1045.5 326.91 1045.5 291.67 1045.5 256.43 1016.93 227.87 981.69 227.87 946.45 227.87 917.89 256.43 917.89 291.67 917.89 326.91 946.45 355.48 981.69 355.48Z" fill="#231f20" opacity="1" stroke-width="4" stroke="none"></path><path d="M981.69 311.61C992.71 311.61 1001.63 302.69 1001.63 291.67 1001.63 280.66 992.71 271.74 981.69 271.74 970.68 271.74 961.76 280.66 961.76 291.67 961.76 302.69 970.68 311.61 981.69 311.61Z" fill="#ffffff" opacity="1" stroke-width="4" stroke="none"></path><path d="M792.18 475.9L792.48 475.7V476C792.48 477.3 791.88 478.6 790.88 479.39L773.64 494.15 774.24 482.18C780.52 481.09 786.5 478.99 792.18 475.9Z" fill="#000000" opacity="0.3" stroke-width="4" stroke="none"></path><path d="M761.18 629.93L755.99 607 861.17 624.94 860.07 629.83 761.18 629.93Z" fill="#979797" opacity="0.3" stroke-width="4" stroke="none"></path></g></svg>